<?xml version="1.0" encoding="UTF-8" standalone="no"?>
<svg
   xmlns:dc="http://purl.org/dc/elements/1.1/"
   xmlns:cc="http://creativecommons.org/ns#"
   xmlns:rdf="http://www.w3.org/1999/02/22-rdf-syntax-ns#"
   xmlns:svg="http://www.w3.org/2000/svg"
   xmlns="http://www.w3.org/2000/svg"
   xmlns:sodipodi="http://sodipodi.sourceforge.net/DTD/sodipodi-0.dtd"
   xmlns:inkscape="http://www.inkscape.org/namespaces/inkscape"
   sodipodi:docname="icon.svg"
   inkscape:version="1.0beta2 (77dacd4, 2019-12-07)"
   inkscape:export-ydpi="256"
   inkscape:export-xdpi="256"
   inkscape:export-filename="C:\Users\takum\Dropbox\Files\Programming\javascript\self\images\icon_512.png"
   id="svg8"
   version="1.1"
   viewBox="0 0 50.799999 50.799999"
   height="192"
   width="192">
  <defs
     id="defs2" />
  <sodipodi:namedview
     inkscape:window-maximized="0"
     inkscape:window-y="0"
     inkscape:window-x="2102"
     inkscape:window-height="1040"
     inkscape:window-width="1593"
     units="px"
     showgrid="false"
     inkscape:document-rotation="0"
     inkscape:current-layer="layer1"
     inkscape:document-units="px"
     inkscape:cy="111.3179"
     inkscape:cx="110.90753"
     inkscape:zoom="2"
     inkscape:pageshadow="2"
     inkscape:pageopacity="0.0"
     borderopacity="1.0"
     bordercolor="#666666"
     pagecolor="#ffffff"
     id="base" />
  <metadata
     id="metadata5">
    <rdf:RDF>
      <cc:Work
         rdf:about="">
        <dc:format>image/svg+xml</dc:format>
        <dc:type
           rdf:resource="http://purl.org/dc/dcmitype/StillImage" />
        <dc:title></dc:title>
      </cc:Work>
    </rdf:RDF>
  </metadata>
  <g
     id="layer1"
     inkscape:groupmode="layer"
     inkscape:label="Layer 1">
    <circle
       r="25.4"
       cy="25.4"
       cx="25.4"
       id="path10"
       style="fill:#000000;fill-rule:evenodd;stroke-width:0.0699922" />
    <path
       transform="scale(0.26458333)"
       d="M 175.73633 42.542969 L 43.03125 176.06445 A 96.000002 96.000002 0 0 0 96 192 A 96.000002 96.000002 0 0 0 160.19922 167.375 L 167.76562 159.76172 A 96.000002 96.000002 0 0 0 192 96 A 96.000002 96.000002 0 0 0 175.73633 42.542969 z "
       style="fill:#1a1a1a;stroke-width:1.48415"
       id="rect14" />
    <path
       transform="scale(0.26458333)"
       d="M 158.16016 22.84375 L 22.841797 158.16016 A 96.000002 96.000002 0 0 0 36.988281 171.7207 L 171.7207 36.990234 A 96.000002 96.000002 0 0 0 158.16016 22.84375 z "
       style="fill:#e6e6e6;stroke-width:0.712505"
       id="rect40" />
    <path
       transform="scale(0.26458333)"
       d="M 168.36523 32.921875 L 32.921875 168.36523 A 96.000002 96.000002 0 0 0 59.091797 184.62109 L 184.62109 59.091797 A 96.000002 96.000002 0 0 0 168.36523 32.921875 z "
       style="fill:#800000;stroke-width:0.999999"
       id="rect12" />
  </g>
</svg>
